<?xml version="1.0" encoding="utf-8"?>
<!-- Generator: Adobe Illustrator 16.0.0, SVG Export Plug-In . SVG Version: 6.00 Build 0)  -->
<!DOCTYPE svg PUBLIC "-//W3C//DTD SVG 1.1//EN" "http://www.w3.org/Graphics/SVG/1.1/DTD/svg11.dtd">
<svg version="1.1" id="Layer_1" xmlns="http://www.w3.org/2000/svg" xmlns:xlink="http://www.w3.org/1999/xlink" x="0px" y="0px"
	 width="24px" height="24px" viewBox="0 0 24 24" enable-background="new 0 0 24 24" xml:space="preserve">
<path fill="#0A3958" d="M12,14c0.55,0,1.021-0.195,1.412-0.588C13.805,13.021,14,12.55,14,12s-0.195-1.021-0.588-1.413
	C13.021,10.196,12.55,10,12,10s-1.021,0.196-1.412,0.587C10.195,10.979,10,11.45,10,12s0.195,1.021,0.588,1.412
	C10.979,13.805,11.45,14,12,14z M8,18h8v-0.575c0-0.399-0.108-0.767-0.325-1.1c-0.216-0.333-0.517-0.583-0.899-0.75
	c-0.434-0.184-0.879-0.325-1.338-0.425C12.979,15.05,12.5,15,12,15s-0.979,0.05-1.438,0.15c-0.459,0.1-0.904,0.241-1.338,0.425
	c-0.383,0.167-0.684,0.417-0.899,0.75C8.108,16.658,8,17.025,8,17.425V18z M18,22H6c-0.55,0-1.021-0.195-1.412-0.588
	C4.195,21.021,4,20.55,4,20V4c0-0.55,0.195-1.021,0.588-1.413C4.979,2.196,5.45,2,6,2h8l6,6v12c0,0.55-0.195,1.021-0.588,1.412
	C19.021,21.805,18.55,22,18,22z M18,20V8.85L13.15,4H6v16H18z M6,20V4V20z"/>
</svg>
