<?xml version="1.0" encoding="utf-8"?>
<!-- Generator: Adobe Illustrator 16.0.0, SVG Export Plug-In . SVG Version: 6.00 Build 0)  -->
<!DOCTYPE svg PUBLIC "-//W3C//DTD SVG 1.1//EN" "http://www.w3.org/Graphics/SVG/1.1/DTD/svg11.dtd">
<svg version="1.1" id="Layer_1" xmlns="http://www.w3.org/2000/svg" xmlns:xlink="http://www.w3.org/1999/xlink" x="0px" y="0px"
	 width="24px" height="24px" viewBox="0 0 24 24" enable-background="new 0 0 24 24" xml:space="preserve">
<path fill="#0A3958" d="M3.5,18.5v-11V18.5v-0.375V18.5z M3.5,20.5c-0.55,0-1.021-0.195-1.413-0.588
	C1.696,19.521,1.5,19.05,1.5,18.5v-11c0-0.55,0.196-1.021,0.587-1.413S2.95,5.5,3.5,5.5h4v-2c0-0.55,0.196-1.021,0.587-1.413
	S8.95,1.5,9.5,1.5h4c0.55,0,1.021,0.196,1.412,0.587C15.305,2.479,15.5,2.95,15.5,3.5v2h4c0.55,0,1.021,0.196,1.412,0.587
	C21.305,6.479,21.5,6.95,21.5,7.5v4.275c-0.3-0.217-0.617-0.404-0.95-0.563s-0.683-0.296-1.05-0.413V7.5h-16v11h7.075
	c0.05,0.35,0.125,0.691,0.225,1.025c0.1,0.333,0.225,0.658,0.375,0.975H3.5z M9.5,5.5h4v-2h-4V5.5z M17.5,22.5
	c-1.383,0-2.563-0.487-3.537-1.463C12.987,20.063,12.5,18.883,12.5,17.5s0.487-2.563,1.463-3.537
	c0.975-0.976,2.154-1.463,3.537-1.463s2.563,0.487,3.537,1.463c0.976,0.975,1.463,2.154,1.463,3.537s-0.487,2.563-1.463,3.537
	C20.063,22.013,18.883,22.5,17.5,22.5z M18,17.3v-2.8h-1v3.2l2.15,2.149l0.699-0.699L18,17.3z"/>
</svg>
