<?xml version="1.0" encoding="utf-8"?>
<!-- Generator: Adobe Illustrator 16.0.0, SVG Export Plug-In . SVG Version: 6.00 Build 0)  -->
<!DOCTYPE svg PUBLIC "-//W3C//DTD SVG 1.1//EN" "http://www.w3.org/Graphics/SVG/1.1/DTD/svg11.dtd">
<svg version="1.1" id="Layer_1" xmlns="http://www.w3.org/2000/svg" xmlns:xlink="http://www.w3.org/1999/xlink" x="0px" y="0px"
	 width="24px" height="24px" viewBox="0 0 24 24" enable-background="new 0 0 24 24" xml:space="preserve">
<path fill="#0A3958" d="M0,18v-1.575c0-0.716,0.367-1.3,1.1-1.75S2.8,14,4,14c0.217,0,0.425,0.004,0.625,0.013
	s0.392,0.028,0.575,0.063c-0.233,0.35-0.409,0.716-0.525,1.1c-0.116,0.384-0.175,0.784-0.175,1.2V18H0z M6,18v-1.625
	c0-0.533,0.146-1.021,0.438-1.463s0.704-0.828,1.237-1.162c0.534-0.334,1.171-0.584,1.913-0.75s1.546-0.25,2.413-0.25
	c0.883,0,1.695,0.084,2.438,0.25s1.379,0.416,1.912,0.75s0.941,0.721,1.226,1.162C17.858,15.354,18,15.842,18,16.375V18H6z M19.5,18
	v-1.625c0-0.434-0.055-0.842-0.162-1.225c-0.109-0.384-0.271-0.742-0.488-1.075c0.184-0.034,0.371-0.054,0.563-0.063S19.8,14,20,14
	c1.2,0,2.166,0.221,2.9,0.662c0.732,0.441,1.1,1.029,1.1,1.763V18H19.5z M8.125,16H15.9c-0.167-0.334-0.629-0.625-1.388-0.875
	S12.916,14.75,12,14.75c-0.917,0-1.754,0.125-2.513,0.375C8.729,15.375,8.275,15.666,8.125,16z M4,13
	c-0.55,0-1.021-0.195-1.413-0.587C2.196,12.021,2,11.55,2,11c0-0.566,0.196-1.042,0.587-1.425C2.979,9.191,3.45,9,4,9
	c0.566,0,1.042,0.191,1.425,0.575C5.809,9.958,6,10.434,6,11c0,0.55-0.191,1.021-0.575,1.413C5.042,12.805,4.566,13,4,13z M20,13
	c-0.55,0-1.021-0.195-1.412-0.587C18.195,12.021,18,11.55,18,11c0-0.566,0.195-1.042,0.588-1.425C18.979,9.191,19.45,9,20,9
	c0.566,0,1.041,0.191,1.425,0.575C21.809,9.958,22,10.434,22,11c0,0.55-0.191,1.021-0.575,1.413C21.041,12.805,20.566,13,20,13z
	 M12,12c-0.833,0-1.542-0.292-2.125-0.875S9,9.833,9,9c0-0.85,0.292-1.563,0.875-2.138C10.458,6.288,11.167,6,12,6
	c0.85,0,1.563,0.288,2.138,0.862C14.713,7.438,15,8.15,15,9c0,0.833-0.287,1.542-0.862,2.125S12.85,12,12,12z M12,10
	c0.283,0,0.521-0.096,0.713-0.288C12.904,9.521,13,9.283,13,9s-0.096-0.521-0.287-0.712C12.521,8.096,12.283,8,12,8
	s-0.521,0.096-0.712,0.288C11.096,8.479,11,8.717,11,9s0.096,0.521,0.288,0.712C11.479,9.904,11.717,10,12,10z"/>
</svg>
