<svg version="1.2" xmlns="http://www.w3.org/2000/svg" viewBox="0 0 40 40" width="40" height="40">
	<title>Roblox_Tilt_Black</title>
	<style>
		.s0 { fill: #f2e4cb } 
	</style>
	<g>
		<path class="s0" d="M18.3,37.4c-2.7-0.3-5.4-1.2-7.8-2.8c-2-1.3-2.4-1.8-2.4-2.9c0-2.1,2.3-5.8,6.3-10c2.3-2.4,5.4-5.2,5.7-5.1 c0.7,0.1,5.9,5.3,7.9,7.7c3.1,3.8,4.6,7,3.8,8.4c-0.6,1.1-4,3.1-6.5,3.9C23.3,37.4,20.5,37.7,18.3,37.4L18.3,37.4z M5.4,29.6 c-1.6-2.5-2.5-5-2.9-8.5c-0.1-1.2-0.1-1.9,0.3-4.3c0.5-3,2.2-6.5,4.3-8.6c0.9-0.9,1-0.9,2-0.6C10.4,8,11.8,9,14,10.9l1.3,1.1 l-0.7,0.8c-3.2,3.9-6.5,9.5-7.8,12.9c-0.7,1.9-1,3.7-0.7,4.5C6.3,30.8,6.1,30.7,5.4,29.6z M34.1,30c0.2-0.8,0-2.2-0.5-3.7 c-1-3.2-4.5-9-7.7-13l-1-1.3l1.1-1c1.4-1.3,2.4-2.1,3.5-2.7c0.8-0.5,2-1,2.5-1c0.3,0,1.4,1.2,2.3,2.4c1.4,2,2.4,4.3,2.9,6.8 c0.3,1.6,0.4,5,0.1,6.6c-0.3,1.3-0.8,3-1.3,4.1c-0.4,0.9-1.4,2.5-1.8,3.1C34,30.7,34,30.7,34.1,30L34.1,30z M18.5,6.8 c-1.5-0.7-3.7-1.5-5-1.8c-0.4-0.1-1.2-0.1-1.7-0.1c-1,0.1-1,0,0.7-0.8c1.4-0.6,2.5-1,4.1-1.4c1.8-0.4,5-0.4,6.8,0 c1.9,0.4,4.1,1.2,5.3,2L29.1,5l-0.8,0c-1.7-0.1-4.1,0.6-6.7,1.9C20.7,7.2,20,7.5,20,7.5C19.9,7.5,19.3,7.1,18.5,6.8z"/>
	</g>
</svg>